<?xml version="1.0" encoding="utf-8"?>
<!-- Generator: Adobe Illustrator 19.0.1, SVG Export Plug-In . SVG Version: 6.00 Build 0)  -->
<!DOCTYPE svg PUBLIC "-//W3C//DTD SVG 1.1//EN" "http://www.w3.org/Graphics/SVG/1.1/DTD/svg11.dtd">
<svg version="1.1" id="Layer_1" xmlns="http://www.w3.org/2000/svg" xmlns:xlink="http://www.w3.org/1999/xlink" x="0px" y="0px"
	 viewBox="-278 370 54 54" style="enable-background:new -278 370 54 54;" xml:space="preserve">
<style type="text/css">
	.st0{fill:#FAA31A;}
</style>
<g>
	<path class="st0" d="M-259.2,403.7l-1.2,2.7c-0.2,0.6-1.1,1.1-1.8,1.1h-7.6c-1,0-1.9,0.9-1.9,1.9c0,1.1,0.9,1.9,1.9,1.9h7.6
		c2,0,4.1-1.3,5.1-3.1L-259.2,403.7z"/>
	<path class="st0" d="M-239.6,400.6c-0.1-0.1-0.1-0.1-0.2-0.2c0,0.1,0,0.2,0,0.2v6.9h-6.1c-0.6,0-1.5-0.6-1.8-1.1l-4.3-9.5l4.3-9.5
		c0.2-0.6,1.1-1.1,1.8-1.1h6.1v7c0,0.1,0,0.2,0,0.2c0.1,0,0.1-0.1,0.2-0.2l9.9-8.9l-9.9-9.1c0,0-0.1-0.1-0.2-0.2c0,0.1,0,0.2,0,0.2
		v6.9h-6.1c-2.2,0-4.4,1.5-5.3,3.4l-2.9,6.5l-2.9-6.5c-0.9-1.9-3.2-3.4-5.3-3.4h-7.5c-1,0-1.9,0.9-1.9,1.9c0,1,0.9,1.9,1.9,1.9h7.6
		c0.6,0,1.5,0.6,1.8,1.1l9.3,20.6c0.9,1.9,3.2,3.4,5.3,3.4h6.1v7.1c0,0.1,0,0.2,0,0.2c0.1,0,0.1-0.1,0.2-0.2l9.9-8.8L-239.6,400.6z"
		/>
</g>
</svg>
